<svg width="100%" height="100%" id="svg" viewBox="0 0 1440 400" xmlns="http://www.w3.org/2000/svg" class="transition duration-300 ease-in-out delay-150"><defs><linearGradient id="gradient" x1="0%" y1="50%" x2="100%" y2="50%"><stop offset="5%" stop-color="#32ded4"></stop><stop offset="95%" stop-color=" #002bdc"></stop></linearGradient></defs><path d="M 0,400 C 0,400 0,133 0,133 C 81.26315789473685,152.55023923444975 162.5263157894737,172.10047846889952 255,155 C 347.4736842105263,137.89952153110048 451.1578947368422,84.1483253588517 544,83 C 636.8421052631578,81.8516746411483 718.8421052631578,133.30622009569376 823,157 C 927.1578947368422,180.69377990430624 1053.4736842105262,176.62679425837322 1160,168 C 1266.5263157894738,159.37320574162678 1353.2631578947369,146.18660287081337 1440,133 C 1440,133 1440,400 1440,400 Z" stroke="none" stroke-width="0" fill="url(#gradient)" fill-opacity="0.53" class="transition-all duration-300 ease-in-out delay-150 path-0" transform="rotate(-180 720 200)"></path><defs><linearGradient id="gradient" x1="0%" y1="50%" x2="100%" y2="50%"><stop offset="5%" stop-color=" #32ded4"></stop><stop offset="95%" stop-color="#002bdc"></stop></linearGradient></defs><path d="M 0,400 C 0,400 0,266 0,266 C 118.77511961722487,246.19138755980862 237.55023923444975,226.3827751196172 320,228 C 402.44976076555025,229.6172248803828 448.57416267942585,252.6602870813398 528,263 C 607.4258373205741,273.3397129186602 720.153110047847,270.9760765550239 834,257 C 947.846889952153,243.0239234449761 1062.8133971291866,217.4354066985646 1164,217 C 1265.1866028708134,216.5645933014354 1352.5933014354068,241.28229665071768 1440,266 C 1440,266 1440,400 1440,400 Z" stroke="none" stroke-width="0" fill="url(#gradient)" fill-opacity="1" class="transition-all duration-300 ease-in-out delay-150 path-1" transform="rotate(-180 720 200)"></path></svg>
