<svg id="visual" viewBox="0 0 960 540" width="960" height="540" xmlns="http://www.w3.org/2000/svg" xmlns:xlink="http://www.w3.org/1999/xlink" version="1.1"><rect x="0" y="0" width="960" height="540" fill="#32ded4"></rect><defs><linearGradient id="grad1_0" x1="43.8%" y1="100%" x2="100%" y2="0%"><stop offset="14.444444444444446%" stop-color="#32ded4" stop-opacity="1"></stop><stop offset="85.55555555555554%" stop-color="#32ded4" stop-opacity="1"></stop></linearGradient></defs><defs><linearGradient id="grad2_0" x1="0%" y1="100%" x2="56.3%" y2="0%"><stop offset="14.444444444444446%" stop-color="#32ded4" stop-opacity="1"></stop><stop offset="85.55555555555554%" stop-color="#32ded4" stop-opacity="1"></stop></linearGradient></defs><g transform="translate(960, 540)"><path d="M-378 0C-375.4 -40.7 -372.8 -81.5 -352.8 -114.6C-332.9 -147.8 -295.5 -173.3 -262.9 -191C-230.4 -208.7 -202.7 -218.5 -181.6 -250C-160.5 -281.4 -146 -334.6 -116.8 -359.5C-87.6 -384.4 -43.8 -381.2 0 -378L0 0Z" fill="#002bdc"></path></g><g transform="translate(0, 0)"><path d="M378 0C371.6 37.7 365.2 75.4 356.6 115.9C348.1 156.4 337.4 199.6 305.8 222.2C274.2 244.7 221.7 246.6 184 253.2C146.3 259.9 123.4 271.3 95.2 292.9C67 314.5 33.5 346.3 0 378L0 0Z" fill="#002bdc"></path></g></svg>