<svg width="100%" height="100%" id="svg" viewBox="0 0 1440 500" xmlns="http://www.w3.org/2000/svg" class="transition duration-300 ease-in-out delay-150"><defs><linearGradient id="gradient" x1="0%" y1="50%" x2="100%" y2="50%"><stop offset="5%" stop-color="#002bdc"></stop><stop offset="95%" stop-color="#32ded4"></stop></linearGradient></defs><path d="M 0,500 C 0,500 0,166 0,166 C 53.60069955817379,170.28865979381442 107.20139911634757,174.57731958762886 167,180 C 226.79860088365243,185.42268041237114 292.7951030927835,191.979381443299 359,198 C 425.2048969072165,204.020618556701 491.6181885125184,209.50515463917526 548,193 C 604.3818114874816,176.49484536082474 650.7321428571429,138 711,131 C 771.2678571428571,123.99999999999999 845.4532400589101,148.49484536082474 912,147 C 978.5467599410899,145.50515463917526 1037.4548969072166,118.02061855670104 1101,106 C 1164.5451030927834,93.97938144329896 1232.7271723122237,97.42268041237114 1290,110 C 1347.2728276877763,122.57731958762886 1393.636413843888,144.28865979381442 1440,166 C 1440,166 1440,500 1440,500 Z" stroke="none" stroke-width="0" fill="url(#gradient)" fill-opacity="0.53" class="transition-all duration-300 ease-in-out delay-150 path-0"></path><defs><linearGradient id="gradient" x1="0%" y1="50%" x2="100%" y2="50%"><stop offset="5%" stop-color="#002bdc"></stop><stop offset="95%" stop-color="#32ded4"></stop></linearGradient></defs><path d="M 0,500 C 0,500 0,333 0,333 C 73.09425625920471,350.14543446244477 146.18851251840942,367.2908689248896 206,350 C 265.8114874815906,332.7091310751104 312.34020618556696,280.98195876288656 368,285 C 423.65979381443304,289.01804123711344 488.4506627393225,348.7812960235641 555,372 C 621.5493372606775,395.2187039764359 689.8571428571429,381.8928571428571 748,349 C 806.1428571428571,316.1071428571429 854.1207658321061,263.64727540500735 904,270 C 953.8792341678939,276.35272459499265 1005.6597938144328,341.5180412371134 1073,374 C 1140.3402061855672,406.4819587628866 1223.2400589101624,406.2805596465391 1287,394 C 1350.7599410898376,381.7194403534609 1395.3799705449187,357.35972017673043 1440,333 C 1440,333 1440,500 1440,500 Z" stroke="none" stroke-width="0" fill="url(#gradient)" fill-opacity="1" class="transition-all duration-300 ease-in-out delay-150 path-1"></path></svg>